<svg id="visual" viewBox="0 0 900 600" width="900" height="600" xmlns="http://www.w3.org/2000/svg" xmlns:xlink="http://www.w3.org/1999/xlink" version="1.1"><rect x="0" y="0" width="900" height="600" fill="#16000f"></rect><path d="M396 600L377.7 585.7C359.3 571.3 322.7 542.7 314.8 514.2C307 485.7 328 457.3 341.5 428.8C355 400.3 361 371.7 372.3 343C383.7 314.3 400.3 285.7 406 257C411.7 228.3 406.3 199.7 376.5 171.2C346.7 142.7 292.3 114.3 285 85.8C277.7 57.3 317.3 28.7 337.2 14.3L357 0L900 0L900 14.3C900 28.7 900 57.3 900 85.8C900 114.3 900 142.7 900 171.2C900 199.7 900 228.3 900 257C900 285.7 900 314.3 900 343C900 371.7 900 400.3 900 428.8C900 457.3 900 485.7 900 514.2C900 542.7 900 571.3 900 585.7L900 600Z" fill="#fa7268"></path><path d="M355 600L363.7 585.7C372.3 571.3 389.7 542.7 413.7 514.2C437.7 485.7 468.3 457.3 473 428.8C477.7 400.3 456.3 371.7 458 343C459.7 314.3 484.3 285.7 459.5 257C434.7 228.3 360.3 199.7 337.2 171.2C314 142.7 342 114.3 380.2 85.8C418.3 57.3 466.7 28.7 490.8 14.3L515 0L900 0L900 14.3C900 28.7 900 57.3 900 85.8C900 114.3 900 142.7 900 171.2C900 199.7 900 228.3 900 257C900 285.7 900 314.3 900 343C900 371.7 900 400.3 900 428.8C900 457.3 900 485.7 900 514.2C900 542.7 900 571.3 900 585.7L900 600Z" fill="#ef5f67"></path><path d="M595 600L584.5 585.7C574 571.3 553 542.7 528.2 514.2C503.3 485.7 474.7 457.3 457.2 428.8C439.7 400.3 433.3 371.7 456.2 343C479 314.3 531 285.7 529.3 257C527.7 228.3 472.3 199.7 444.3 171.2C416.3 142.7 415.7 114.3 429.8 85.8C444 57.3 473 28.7 487.5 14.3L502 0L900 0L900 14.3C900 28.7 900 57.3 900 85.8C900 114.3 900 142.7 900 171.2C900 199.7 900 228.3 900 257C900 285.7 900 314.3 900 343C900 371.7 900 400.3 900 428.8C900 457.3 900 485.7 900 514.2C900 542.7 900 571.3 900 585.7L900 600Z" fill="#e34c67"></path><path d="M704 600L696.5 585.7C689 571.3 674 542.7 668.8 514.2C663.7 485.7 668.3 457.3 656.3 428.8C644.3 400.3 615.7 371.7 603.2 343C590.7 314.3 594.3 285.7 587.5 257C580.7 228.3 563.3 199.7 576.5 171.2C589.7 142.7 633.3 114.3 658.3 85.8C683.3 57.3 689.7 28.7 692.8 14.3L696 0L900 0L900 14.3C900 28.7 900 57.3 900 85.8C900 114.3 900 142.7 900 171.2C900 199.7 900 228.3 900 257C900 285.7 900 314.3 900 343C900 371.7 900 400.3 900 428.8C900 457.3 900 485.7 900 514.2C900 542.7 900 571.3 900 585.7L900 600Z" fill="#d53867"></path><path d="M814 600L806 585.7C798 571.3 782 542.7 774 514.2C766 485.7 766 457.3 765.8 428.8C765.7 400.3 765.3 371.7 755.5 343C745.7 314.3 726.3 285.7 725.3 257C724.3 228.3 741.7 199.7 743.5 171.2C745.3 142.7 731.7 114.3 728.2 85.8C724.7 57.3 731.3 28.7 734.7 14.3L738 0L900 0L900 14.3C900 28.7 900 57.3 900 85.8C900 114.3 900 142.7 900 171.2C900 199.7 900 228.3 900 257C900 285.7 900 314.3 900 343C900 371.7 900 400.3 900 428.8C900 457.3 900 485.7 900 514.2C900 542.7 900 571.3 900 585.7L900 600Z" fill="#c62368"></path></svg>
